<?xml version="1.0" encoding="utf-8"?>
<!-- Generator: Adobe Illustrator 24.1.1, SVG Export Plug-In . SVG Version: 6.00 Build 0)  -->
<svg version="1.1" id="Capa_1" xmlns="http://www.w3.org/2000/svg" xmlns:xlink="http://www.w3.org/1999/xlink" x="0px" y="0px"
	 viewBox="0 0 1379.4 287.4" style="enable-background:new 0 0 1379.4 287.4;" xml:space="preserve">
<style type="text/css">
	.st0{fill:url(#SVGID_1_);}
	.st1{fill:#FFFFFF;}
</style>
<g>
	<linearGradient id="SVGID_1_" gradientUnits="userSpaceOnUse" x1="25.2435" y1="236.98" x2="214.9385" y2="47.285">
		<stop  offset="0" style="stop-color:#5757CE"/>
		<stop  offset="1" style="stop-color:#959CE8"/>
	</linearGradient>
	<path class="st0" d="M205.5,142.1c27.2-26.8,42.3-54.2,30.7-72.6c-6-9.6-20.9-19.1-58.1-10.3c-7.6,1.8-15.6,4.3-23.9,7.3V19h10.4V0
		h-10.4H85.9H75.5v19h10.5v47.5c-8.3-3-16.3-5.5-23.9-7.3C24.8,50.4,9.9,60,3.9,69.5C-7.6,88,7.5,115.4,34.6,142.1
		c-5.4,5.3-10.2,10.6-14.5,15.9c-24.2,29.6-22.2,47.2-16.2,56.7c6,9.6,17.4,13.8,32,13.8c14.2,0,31.6-4,50-10.8v35.5
		c0,18.8,15.3,34.2,34.2,34.2s34.2-15.3,34.2-34.2v-35.5c18.4,6.8,35.8,10.8,50,10.8c14.6,0,26-4.2,32-13.8c6-9.6,8-27.2-16.2-56.7
		C215.8,152.8,210.9,147.4,205.5,142.1z M182.6,77.7c8.7-2.1,16-2.9,21.7-2.9c8.7,0,14.1,2,15.8,4.8c2.9,4.7-0.5,17.2-14.8,34.6
		c-4.1,5-8.7,10-13.9,15c-11.1-9.6-23.7-18.9-37.2-27.8V86.9C164.2,82.9,173.7,79.8,182.6,77.7z M85.9,159.8
		c-8.2-5.8-15.9-11.7-23-17.7c7.1-6,14.8-11.9,23-17.7V159.8z M105,172.3V112c5-3.1,10.1-6,15.1-8.8c5,2.8,10.1,5.7,15.1,8.8v60.3
		c-5,3.1-10.1,6-15.1,8.8C115.1,178.3,110,175.4,105,172.3z M154.3,124.5c8.2,5.8,15.9,11.7,23,17.7c-7.1,6-14.8,11.9-23,17.7V124.5
		z M105,19h30.3v55.3c-5,2.3-10.1,4.7-15.1,7.3c-5.1-2.6-10.1-5-15.1-7.3V19z M34.8,114.2C20.6,96.8,17.1,84.3,20.1,79.6
		c2.9-4.7,15.7-7,37.6-1.9c8.9,2.1,18.4,5.2,28.3,9.1v14.6c-13.5,8.8-26.1,18.2-37.2,27.8C43.6,124.2,38.9,119.1,34.8,114.2z
		 M57.6,206.5c-21.9,5.2-34.7,2.8-37.6-1.9c-2.9-4.7,0.5-17.2,14.8-34.6c4.1-5,8.7-10,13.9-15c11.3,9.7,24,19.1,37.2,27.8v14.6
		C76,201.3,66.5,204.4,57.6,206.5z M135.2,253.2c0,8.3-6.8,15.1-15.1,15.1s-15.1-6.8-15.1-15.1v-43.3c5-2.3,10.1-4.7,15.1-7.3
		c5.1,2.6,10.1,5,15.1,7.3V253.2z M220.1,204.6c-2.9,4.7-15.7,7-37.6,1.9c-8.9-2.1-18.4-5.2-28.3-9.1v-14.6
		c13.2-8.6,25.9-18,37.2-27.8c5.1,5,9.8,10.1,13.9,15C219.6,187.5,223,200,220.1,204.6z"/>
	<g>
		<path class="st1" d="M373.3,32.7l-4.5,6.4c-6.7-4.2-13.5-6.3-20.5-6.3c-9.6,0-17.1,3.9-22.6,11.8c-5.1,7.2-7.6,16.8-7.6,28.7
			c0,12.5,3.3,22.2,9.9,29.2c5.6,6.1,12.8,9.1,21.5,9.1c7.2,0,14-2.3,20.5-7l4.5,6.7c-7.8,6.8-16.6,10.2-26.5,10.2
			c-13.7,0-24.4-5.3-32.2-15.9c-6.4-8.7-9.6-19.5-9.6-32.3c0-14.4,3.9-26.4,11.7-36.2c7.4-9.3,16.8-13.9,28.3-13.9
			C356.4,23.3,365.4,26.5,373.3,32.7z"/>
		<path class="st1" d="M450.8,119.8H441V80c0-14.2-6.3-21.2-18.9-21.2c-3.4,0-6.9,0.9-10.5,2.6c-3.6,1.7-6.2,3.9-7.9,6.4v52.1h-10
			V28.5l10-5.2v35.8c6.2-6,13.4-9,21.5-9c17.1,0,25.6,9.7,25.6,29.2V119.8z"/>
		<path class="st1" d="M528.6,89.3h-48.5c0.4,7.3,2.9,13.1,7.6,17.5c4.6,4.4,10.6,6.6,18,6.6c6.2,0,12.2-1.8,18.1-5.5l3.4,6
			c-6.6,5.2-14.5,7.8-23.8,7.8c-10.8,0-19.4-3.5-25.7-10.6c-5.9-6.4-8.8-14.7-8.8-24.8c0-10.6,3.1-19.4,9.4-26.5
			c5.7-6.4,12.7-9.6,21.1-9.6c10.1,0,17.8,4.1,23,12.3c4.1,6.4,6.1,14.3,6.1,23.6V89.3z M480,81.2h38.3c-0.3-7.3-2.1-13-5.3-17.1
			c-3.2-4.1-7.7-6.1-13.4-6.1c-5.4,0-9.9,2.1-13.5,6.4C482.4,68.7,480.4,74.3,480,81.2z"/>
		<path class="st1" d="M649.1,119.8h-10V80.9c0-14.8-6.2-22.1-18.6-22.1c-6.7,0-12.9,2.9-18.6,8.7c1,3.5,1.5,7.4,1.5,11.7v40.7h-9.9
			V80.3c0-14.4-6-21.5-18.1-21.5c-3.2,0-6.5,0.9-10,2.6c-3.4,1.7-6.1,3.9-8,6.5v51.9h-10V51.9h8.4l0.9,7h0.4
			c6.3-5.9,13.5-8.8,21.7-8.8c9.8,0,16.6,3.6,20.5,10.9c6.6-7.3,14.8-10.9,24.7-10.9c8.2,0,14.5,2.6,18.9,7.9c4.1,5,6.1,12,6.1,21.1
			V119.8z"/>
		<path class="st1" d="M670.9,29.7c0-1.7,0.6-3.2,1.9-4.5c1.3-1.3,2.8-1.9,4.6-1.9s3.3,0.6,4.6,1.9c1.3,1.3,1.9,2.8,1.9,4.5
			c0,1.9-0.6,3.5-1.9,4.7c-1.3,1.2-2.8,1.9-4.6,1.9c-1.9,0-3.5-0.6-4.7-1.9C671.6,33.2,670.9,31.6,670.9,29.7z M682.3,51.9v67.9
			h-9.9V51.9H682.3z"/>
		<path class="st1" d="M757.7,57.3l-3.3,5.7c-5.1-3.2-10.6-4.8-16.6-4.8c-8.2,0-14.6,3-19.2,9c-4,5.2-6,11.7-6,19.5
			c0,8.3,2.5,14.9,7.6,19.9c4.7,4.6,10.8,6.9,18.4,6.9c6.4,0,12-1.8,16.9-5.5l3.3,6c-5.6,5.2-13.1,7.8-22.4,7.8
			c-11,0-19.7-3.7-26.2-11.1c-5.6-6.5-8.4-14.6-8.4-24.4c0-11,3.6-19.9,10.9-26.9c6.3-6.1,13.9-9.1,22.7-9.1
			C744.2,50.1,751.6,52.5,757.7,57.3z"/>
		<path class="st1" d="M826.7,119.8h-7.5l-1.5-7.3c-6.1,6.1-13.7,9.1-22.7,9.1c-6.9,0-12.4-1.9-16.5-5.8c-4.1-3.8-6.1-9-6.1-15.3
			c0-15.6,11.4-23.3,34.1-23.3h10.3v-0.9c0-11.9-5.8-17.8-17.4-17.8c-6.6,0-12.9,2.2-19,6.6l-3.3-5.5c6.9-6.3,15.3-9.4,25.1-9.4
			c7.9,0,13.9,2.4,18.1,7.3c4.2,4.9,6.3,11.9,6.3,21.1V119.8z M816.8,84.5h-9.1c-16.4,0-24.5,5-24.5,15.1c0,4.3,1.3,7.7,3.8,10.1
			c2.5,2.4,6.1,3.7,10.7,3.7c4,0,7.8-1,11.5-3c3.7-2,6.2-4.5,7.6-7.5V84.5z"/>
		<path class="st1" d="M859.8,23.3v96.5h-10V28.7L859.8,23.3z"/>
		<path class="st1" d="M915,112l4.8-6.7c7.3,4.2,15,6.3,23.2,6.3c6.3,0,11.2-1.5,14.8-4.4c3.6-2.9,5.4-7.1,5.4-12.5
			c0-9.2-6-15.9-18.1-20c-10.3-3.5-17.7-7.4-22.3-11.7c-4.6-4.3-6.9-9.5-6.9-15.7c0-7.4,2.9-13.3,8.7-17.8
			c5.3-4.1,12.2-6.1,20.8-6.1c9.4,0,17.9,2.6,25.6,7.8l-4.9,6.7c-6.2-3.3-12.8-4.9-19.9-4.9c-5.8,0-10.4,1.2-13.8,3.7
			c-3.4,2.5-5.1,5.9-5.1,10.2c0,6.7,5.2,12,15.6,15.9c11.8,4.5,20,9.1,24.8,13.8c4.7,4.7,7.1,10.9,7.1,18.5c0,8.7-3.3,15.5-10,20.5
			c-5.5,4.1-12.2,6.1-20,6.1C934.7,121.6,924.8,118.4,915,112z"/>
		<path class="st1" d="M1046,57.3l-3.3,5.7c-5.1-3.2-10.6-4.8-16.6-4.8c-8.2,0-14.6,3-19.2,9c-4,5.2-6,11.7-6,19.5
			c0,8.3,2.5,14.9,7.6,19.9c4.7,4.6,10.8,6.9,18.4,6.9c6.4,0,12-1.8,16.9-5.5l3.3,6c-5.6,5.2-13.1,7.8-22.4,7.8
			c-11,0-19.7-3.7-26.2-11.1c-5.6-6.5-8.4-14.6-8.4-24.4c0-11,3.6-19.9,10.9-26.9c6.3-6.1,13.9-9.1,22.7-9.1
			C1032.6,50.1,1040,52.5,1046,57.3z"/>
		<path class="st1" d="M1064.4,29.7c0-1.7,0.6-3.2,1.9-4.5c1.3-1.3,2.8-1.9,4.6-1.9c1.8,0,3.3,0.6,4.6,1.9c1.3,1.3,1.9,2.8,1.9,4.5
			c0,1.9-0.7,3.5-1.9,4.7c-1.3,1.2-2.8,1.9-4.6,1.9c-1.9,0-3.5-0.6-4.7-1.9C1065.1,33.2,1064.4,31.6,1064.4,29.7z M1075.8,51.9v67.9
			h-9.9V51.9H1075.8z"/>
		<path class="st1" d="M1155.1,89.3h-48.5c0.4,7.3,2.9,13.1,7.6,17.5c4.6,4.4,10.6,6.6,18,6.6c6.2,0,12.2-1.8,18.1-5.5l3.4,6
			c-6.6,5.2-14.5,7.8-23.8,7.8c-10.8,0-19.4-3.5-25.7-10.6c-5.9-6.4-8.8-14.7-8.8-24.8c0-10.6,3.1-19.4,9.4-26.5
			c5.7-6.4,12.7-9.6,21.1-9.6c10.1,0,17.8,4.1,23,12.3c4.1,6.4,6.1,14.3,6.1,23.6V89.3z M1106.5,81.2h38.3c-0.3-7.3-2.1-13-5.3-17.1
			c-3.2-4.1-7.7-6.1-13.4-6.1c-5.4,0-9.9,2.1-13.5,6.4C1108.9,68.7,1106.9,74.3,1106.5,81.2z"/>
		<path class="st1" d="M1231.1,119.8h-9.9V80c0-14.2-6.2-21.2-18.6-21.2c-3.6,0-7.1,0.8-10.6,2.5c-3.5,1.7-6.2,3.8-8.1,6.4v52.1h-10
			V51.9h8.4l0.9,7.2h0.4c5.9-6,13.3-9,22.1-9c16.9,0,25.3,9.7,25.3,29.2V119.8z"/>
		<path class="st1" d="M1305,57.3l-3.3,5.7c-5.1-3.2-10.6-4.8-16.6-4.8c-8.2,0-14.6,3-19.2,9c-4,5.2-6,11.7-6,19.5
			c0,8.3,2.5,14.9,7.6,19.9c4.7,4.6,10.8,6.9,18.4,6.9c6.4,0,12-1.8,16.9-5.5l3.3,6c-5.6,5.2-13.1,7.8-22.4,7.8
			c-11,0-19.7-3.7-26.2-11.1c-5.6-6.5-8.4-14.6-8.4-24.4c0-11,3.6-19.9,10.9-26.9c6.3-6.1,13.9-9.1,22.7-9.1
			C1291.6,50.1,1299,52.5,1305,57.3z"/>
		<path class="st1" d="M1379.4,89.3h-48.5c0.4,7.3,2.9,13.1,7.6,17.5c4.6,4.4,10.6,6.6,18,6.6c6.2,0,12.2-1.8,18.1-5.5l3.4,6
			c-6.6,5.2-14.5,7.8-23.8,7.8c-10.8,0-19.4-3.5-25.7-10.6c-5.9-6.4-8.8-14.7-8.8-24.8c0-10.6,3.1-19.4,9.4-26.5
			c5.7-6.4,12.7-9.6,21.1-9.6c10.1,0,17.8,4.1,23,12.3c4.1,6.4,6.1,14.3,6.1,23.6V89.3z M1330.8,81.2h38.3c-0.3-7.3-2.1-13-5.3-17.1
			c-3.2-4.1-7.7-6.1-13.4-6.1c-5.4,0-9.9,2.1-13.5,6.4C1333.2,68.7,1331.2,74.3,1330.8,81.2z"/>
		<path class="st1" d="M305.1,196.6h9.7v-9.9c0-5.9,1.4-10.5,4.3-13.8c2.9-3.3,7-4.9,12.3-4.9c5.4,0,10.5,1.7,15.4,5.1l-3.6,5.5
			c-3.3-1.7-6.5-2.5-9.7-2.5c-5.9,0-8.8,3.7-8.8,11.1v9.4h17.1v8.1h-17.1v59.9h-9.9v-59.9h-9.7V196.6z"/>
		<path class="st1" d="M418.7,230.7c0,10.8-3.4,19.6-10.2,26.5c-6.1,6.1-13.6,9.1-22.4,9.1c-10.3,0-18.6-3.9-24.8-11.7
			c-5.3-6.6-7.9-14.6-7.9-23.9c0-11,3.3-19.8,9.9-26.6c6-6.2,13.6-9.3,22.9-9.3c10.5,0,18.8,3.9,25,11.8
			C416.1,213.2,418.7,221.2,418.7,230.7z M364.1,230.7c0,8.7,2.2,15.6,6.7,20.6c4,4.5,9,6.7,15.1,6.7c6.6,0,11.9-2.5,15.9-7.6
			c4-5,6.1-11.6,6.1-19.8c0-8.6-2.2-15.5-6.6-20.6c-4-4.8-9.1-7.2-15.3-7.2c-6.6,0-11.9,2.6-15.9,7.7
			C366.1,215.7,364.1,222.4,364.1,230.7z"/>
		<path class="st1" d="M481.8,202.4l-8.2,5.7c-3.4-3-7-4.5-10.9-4.5c-5.7,0-10.7,2.9-15.1,8.8v52.1h-10v-67.9h8.5l0.9,7.2h0.3
			c5.9-6,11.9-9,18.1-9C472.6,194.8,478.1,197.3,481.8,202.4z"/>
		<path class="st1" d="M528,256.7l4.8-6.7c7.3,4.2,15,6.3,23.2,6.3c6.3,0,11.2-1.5,14.8-4.4c3.6-2.9,5.4-7.1,5.4-12.5
			c0-9.2-6-15.9-18.1-20c-10.3-3.5-17.7-7.4-22.3-11.7c-4.6-4.3-6.9-9.5-6.9-15.7c0-7.4,2.9-13.3,8.7-17.8
			c5.3-4.1,12.2-6.1,20.8-6.1c9.4,0,17.9,2.6,25.6,7.8l-4.9,6.7c-6.2-3.3-12.8-4.9-19.9-4.9c-5.8,0-10.4,1.2-13.8,3.7
			c-3.4,2.5-5.1,5.9-5.1,10.2c0,6.7,5.2,12,15.6,15.9c11.8,4.5,20,9.1,24.8,13.8c4.7,4.7,7.1,10.9,7.1,18.5c0,8.7-3.3,15.5-10,20.5
			c-5.5,4.1-12.2,6.1-20,6.1C547.8,266.3,537.9,263.1,528,256.7z"/>
		<path class="st1" d="M622.8,204.8l-0.1,42.5c0,7.3,2.9,10.9,8.8,10.9c3.3,0,6.5-0.8,9.7-2.5l3.6,5.5c-4.9,3.4-10,5.1-15.4,5.1
			c-5.3,0-9.4-1.6-12.3-4.9c-2.9-3.3-4.3-7.9-4.3-13.8v-42.8h-10.3v-8.2h10.5v-14.8l9.9-5.1v19.9h20.8v8.2H622.8z"/>
		<path class="st1" d="M717.5,196.6v67.9h-7.8l-0.9-7.8l-0.4,0.1c-6.1,6.3-13.5,9.4-22.1,9.4c-7.3,0-13-2.6-17.2-7.7
			c-4.2-5.1-6.3-12.2-6.3-21.3v-40.7h10v38.9c0,14.7,5.5,22,16.5,22c3.4,0,6.8-0.8,10.2-2.5c3.4-1.7,6.2-3.9,8.2-6.6v-51.8H717.5z"
			/>
		<path class="st1" d="M789.7,264.5l-1.6-7.2c-4.8,6-11.7,9-20.8,9c-9.9,0-17.7-3.7-23.5-11.1c-5-6.4-7.5-14.3-7.5-23.8
			c0-12,3.5-21.3,10.5-28.1c5.8-5.7,12.9-8.5,21.4-8.5c8,0,14.4,2.6,19.2,7.9v-29l9.9-5.5v96.4H789.7z M787.3,246.4v-32.5
			c-1.3-3.1-3.6-5.7-7-7.9c-3.4-2.1-7-3.2-10.8-3.2c-6.6,0-12,2.6-16.2,7.7c-4.2,5.1-6.3,11.7-6.3,19.8c0,9.2,2.3,16.3,6.9,21.4
			c4,4.2,9,6.3,15,6.3c4,0,7.7-1.1,11-3.2C783.3,252.7,785.7,249.9,787.3,246.4z"/>
		<path class="st1" d="M875.8,234h-48.5c0.4,7.3,2.9,13.1,7.6,17.5c4.6,4.4,10.6,6.6,18,6.6c6.2,0,12.2-1.8,18.1-5.5l3.4,6
			c-6.6,5.2-14.5,7.8-23.8,7.8c-10.8,0-19.4-3.5-25.7-10.6c-5.9-6.4-8.8-14.7-8.8-24.8c0-10.6,3.1-19.4,9.4-26.5
			c5.7-6.4,12.7-9.6,21.1-9.6c10.1,0,17.8,4.1,23,12.3c4.1,6.4,6.1,14.3,6.1,23.6V234z M827.1,225.9h38.3c-0.3-7.3-2.1-13-5.3-17.1
			c-3.2-4.1-7.7-6.1-13.4-6.1c-5.4,0-9.9,2.1-13.5,6.4C829.6,213.4,827.5,219,827.1,225.9z"/>
		<path class="st1" d="M951.8,264.5h-9.9v-39.8c0-14.2-6.2-21.2-18.6-21.2c-3.6,0-7.1,0.8-10.6,2.5c-3.5,1.7-6.2,3.8-8.1,6.4v52.1
			h-10v-67.9h8.4l0.9,7.2h0.4c5.9-6,13.3-9,22.1-9c16.9,0,25.3,9.7,25.3,29.2V264.5z"/>
		<path class="st1" d="M987.8,204.8l-0.2,42.5c0,7.3,2.9,10.9,8.8,10.9c3.3,0,6.5-0.8,9.7-2.5l3.6,5.5c-4.9,3.4-10,5.1-15.4,5.1
			c-5.3,0-9.4-1.6-12.3-4.9c-2.9-3.3-4.3-7.9-4.3-13.8v-42.8h-10.3v-8.2H978v-14.8l9.9-5.1v19.9h20.8v8.2H987.8z"/>
		<path class="st1" d="M1063.4,206.7c-5-2.6-10.4-3.9-16.3-3.9c-4,0-7.1,0.9-9.4,2.6c-2.2,1.7-3.4,4.1-3.4,7.1c0,3.2,1,5.7,3.1,7.4
			c2,1.7,6,3.5,11.7,5.2c8.2,2.5,13.9,5.3,17.1,8.4c3.2,3.1,4.8,7.4,4.8,13c0,5.9-2.2,10.6-6.7,14.3c-4.4,3.6-10.2,5.5-17.1,5.5
			c-9.2,0-17.2-2.5-23.9-7.5c0.3-0.5,0.8-1.3,1.5-2.5c0.7-1.3,1.3-2.3,1.8-3c5.8,3.2,12,4.8,18.7,4.8c10.5,0,15.7-3.9,15.7-11.8
			c0-3.2-1.1-5.7-3.4-7.5c-2.2-1.8-6.4-3.5-12.5-5.1c-14.2-4-21.2-10.9-21.2-20.8c0-5.3,2.1-9.6,6.2-13c4.1-3.4,9.4-5.1,15.9-5.1
			c7.7,0,14.6,2.1,20.6,6.4L1063.4,206.7z"/>
	</g>
</g>
</svg>
